Coordinates
version=1
nRows=6
nColumns=36
inDegrees=yes

Units are S.I. units (second, meters, Newtons, ...)
If the header above contains a line with 'inDegrees', this indicates whether rotational values are in degrees (yes) or radians (no).

endheader
time	pelvis_tilt	pelvis_list	pelvis_rotation	pelvis_tx	pelvis_ty	pelvis_tz	hip_flexion_r	hip_adduction_r	hip_rotation_r	knee_angle_r	knee_angle_r_beta	ankle_angle_r	subtalar_angle_r	mtp_angle_r	hip_flexion_l	hip_adduction_l	hip_rotation_l	knee_angle_l	knee_angle_l_beta	ankle_angle_l	subtalar_angle_l	mtp_angle_l	lumbar_extension	lumbar_bending	lumbar_rotation	arm_flex_r	arm_add_r	arm_rot_r	elbow_flex_r	pro_sup_r	arm_flex_l	arm_add_l	arm_rot_l	elbow_flex_l	pro_sup_l
      3.96666670	     -3.40161151	      8.18100724	     -1.55931403	      0.71438434	      0.98711676	      0.06478029	     12.30166552	     -1.60167150	      6.64614271	     13.37610240	      0.23345703	     14.39315498	     -2.15880894	     -7.49999970	     40.80679724	     -0.95700569	     -4.86720022	     18.18912964	      0.31746020	     -5.47587359	     -6.65878836	     -7.49999970	    -25.40271804	     -5.91008696	      4.17980013	     39.99953467	     13.63216001	     74.43148067	    119.59871264	     95.85563469	     52.03964461	     12.54441879	     77.57648897	    127.95087057	     72.08197350
      3.98333330	     -2.98297997	      7.97093476	     -1.33695140	      0.71375090	      0.98775194	      0.06417280	     11.49623462	     -1.44415273	      6.60966409	     12.87378508	      0.22468994	     14.26041782	     -2.20797346	     -7.49999973	     40.17215196	     -0.84974201	     -4.30194077	     17.96797689	      0.31360036	     -5.18294145	     -6.72225599	     -7.49999973	    -25.15526502	     -5.48382371	      4.51773146	     39.69635314	     13.55504512	     74.62606322	    119.33656308	     93.67755862	     51.60511758	     12.81198584	     78.06173498	    127.88750047	     71.36921811
      4.00000000	     -2.72648643	      7.85915247	     -1.16899942	      0.71340612	      0.98817673	      0.06428787	     11.00846786	     -1.31827207	      6.60798314	     12.53031702	      0.21869529	     14.01616585	     -2.37002035	     -7.49999974	     39.59342026	     -0.83465378	     -3.73221725	     17.39023452	      0.30351685	     -5.26362517	     -7.01588298	     -7.49999974	    -24.86443474	     -5.15969850	      4.83449417	     39.28126563	     13.54525560	     74.59352059	    119.08906305	     93.04800915	     51.49920678	     12.90821778	     78.38143425	    127.94451585	     70.81814549
      4.01666670	     -2.56125578	      7.74139783	     -1.11274903	      0.71295580	      0.98860787	      0.06375564	     10.79472231	     -1.20293275	      6.62234198	     12.41682644	      0.21671450	     13.95610363	     -2.31346134	     -7.49999974	     39.06693245	     -0.88536242	     -3.44627332	     16.74061619	      0.29217887	     -5.49932633	     -7.17141703	     -7.49999974	    -24.53186553	     -4.87286890	      5.22724216	     38.91751610	     13.39965553	     74.54089706	    119.11213556	     92.36916425	     51.13333792	     13.04246478	     78.70640914	    127.77538128	     70.24085314
      4.03333330	     -2.45114434	      7.65056280	     -1.08623504	      0.71733377	      0.98944927	      0.06095891	     10.56472684	     -1.15570386	      6.82635340	     12.35071293	      0.21556061	     14.06521925	     -2.30894373	     -7.49999974	     38.56465902	     -0.82197255	     -3.15773530	     16.16715750	      0.28217013	     -5.29416137	     -7.19456815	     -7.49999974	    -24.20713960	     -4.50279112	      5.34179484	     38.42874716	     13.22552654	     74.76913317	    119.22526976	     92.37423825	     50.61996244	     12.96703389	     78.95252595	    127.60577357	     70.21094425
      4.05000000	     -2.52471144	      7.65361778	     -0.91187769	      0.71216196	      0.98695209	      0.05762856	     10.71266392	     -1.27012698	      6.94136752	     12.33629049	      0.21530889	     14.04300873	     -2.50592797	     -7.49999975	     38.54407179	     -0.50049229	     -2.82342416	     15.73166677	      0.27456938	     -5.44258427	     -7.65136979	     -7.49999975	    -23.94259526	     -4.28457220	      5.37544277	     37.84178448	     12.72479947	     75.04932009	    119.95818520	     92.37893038	     50.41963215	     13.23911760	     79.23978425	    127.07400196	     69.88399121
